
<svg version="1.1" id="レイヤー_1" xmlns="http://www.w3.org/2000/svg" xmlns:xlink="http://www.w3.org/1999/xlink" x="0px"
	 y="0px" width="853px" height="443.207px" viewBox="0.166 -0.131 853 443.207" enable-background="new 0.166 -0.131 853 443.207"
	 xml:space="preserve">
<path fill="none" stroke="#808080" stroke-width="2" stroke-miterlimit="10" d="M0.166,72.869h853"/>
<line fill="none" stroke="#B3B3B3" stroke-width="0.783" stroke-miterlimit="10" x1="0.166" y1="72.703" x2="853.166" y2="72.703"/>
<linearGradient id="SVGID_1_" gradientUnits="userSpaceOnUse" x1="-84.199" y1="1646.2773" x2="-83.1946" y2="1646.2773" gradientTransform="matrix(0 -71.6729 -71.6729 0 118420.2266 -5962.9023)">
	<stop  offset="0" style="stop-color:#E8E8E8"/>
	<stop  offset="1" style="stop-color:#F2F2F2"/>
</linearGradient>
<rect x="0.166" y="-0.131" fill="url(#SVGID_1_)" width="853" height="72"/>
<path fill="#FFFFFF" d="M787.756,52.319H92.165c-2.906,0-5.263-2.356-5.263-5.262V26.442c0-2.906,2.355-5.262,5.263-5.262h695.593
	c2.905,0,5.262,2.355,5.262,5.262v20.615C793.018,49.963,790.664,52.319,787.756,52.319"/>
<path fill="none" stroke="#808080" stroke-width="0.261" stroke-miterlimit="10" d="M787.756,52.319H92.165
	c-2.906,0-5.263-2.356-5.263-5.262V26.442c0-2.906,2.355-5.262,5.263-5.262h695.593c2.905,0,5.262,2.355,5.262,5.262v20.615
	C793.018,49.963,790.664,52.319,787.756,52.319z"/>
<path fill="#B3B3B3" d="M32.365,36.836c0,3.676-2.979,6.654-6.653,6.654s-6.654-2.979-6.654-6.654s2.979-6.653,6.654-6.653
	S32.365,33.161,32.365,36.836 M50.37,36.836c0,3.676-2.979,6.654-6.654,6.654s-6.654-2.979-6.654-6.654s2.979-6.653,6.654-6.653
	C47.391,30.182,50.37,33.161,50.37,36.836 M67.854,36.836c0,3.676-2.979,6.654-6.653,6.654c-3.676,0-6.654-2.979-6.654-6.654
	s2.979-6.653,6.654-6.653C64.875,30.182,67.854,33.161,67.854,36.836"/>
<path fill="#B3B3B3" d="M814.807,27.29h17.615v3.914h-17.615V27.29z M814.807,34.727h17.615v3.914h-17.615V34.727z M814.807,42.295
	h17.615v3.914h-17.615V42.295z"/>
<path fill="none" stroke="#B3B3B3" stroke-width="0.891" stroke-miterlimit="10" d="M111.641,39.417
	c-0.096,0.522-0.248,1.043-0.464,1.553c-1.59,3.754-5.922,5.509-9.676,3.919c-3.754-1.591-5.508-5.923-3.918-9.677
	s5.922-5.508,9.676-3.919c1.337,0.567,2.419,1.482,3.188,2.595"/>
<polygon fill="#B3B3B3" points="108.57,28.198 105.389,35.709 113.777,34.833 "/>
<path fill="#808080" d="M413.137,139.869c32.139,0,61.233,13.026,82.295,34.089c21.063,21.062,34.09,50.158,34.09,82.296
	c0,14.191-2.541,27.789-7.191,40.363l-8.331-4.484c3.491-9.816,5.592-20.297,6.061-31.197h-36.246
	c-0.115,4.906-0.418,9.734-0.891,14.469l-8.965-4.828c0.245-3.17,0.409-6.387,0.491-9.641h-56.632v48.498
	c9.942,0.27,19.63,1.395,28.954,3.287l2.582,10.135c-10.063-2.352-20.627-3.746-31.536-4.059v44.168
	c13.321-1.797,25.55-11.184,35.218-25.67l2.992,11.74c-2.416,3.021-4.955,5.793-7.604,8.289c3.002-1.049,5.944-2.229,8.817-3.527
	l2.347,9.205c-14.229,6.197-29.938,9.639-46.449,9.639c-32.14,0-61.235-13.027-82.297-34.088
	c-21.063-21.064-34.089-50.16-34.089-82.299c0-32.138,13.026-61.234,34.089-82.296C351.903,152.896,380.998,139.869,413.137,139.869
	 M408.456,318.797c-12.755,0.363-25.036,2.209-36.6,5.332c-1.782,0.48-3.546,0.992-5.293,1.531c1.233,2.502,2.531,4.904,3.89,7.203
	c10.051,16.996,23.367,28.127,38.003,30.102V318.797z M357.664,328.727c-5.549,2.109-10.882,4.525-15.968,7.221
	c10.414,9.342,22.67,16.67,36.156,21.379c-5.704-5.375-10.898-12.02-15.443-19.707C360.739,334.795,359.155,331.826,357.664,328.727
	 M334.743,329.115c6.079-3.381,12.487-6.381,19.175-8.955c-6.788-17.104-10.936-37.398-11.456-59.227h-36.246
	C307.348,287.236,317.969,311.074,334.743,329.115 M362.739,317.066c2.209-0.701,4.444-1.357,6.703-1.969
	c12.35-3.336,25.443-5.297,39.014-5.664v-48.498h-56.631C352.343,281.73,356.295,300.971,362.739,317.066 M491.531,183.394
	c-6.078,3.382-12.485,6.381-19.176,8.955c6.787,17.104,10.938,37.4,11.455,59.225h36.246
	C518.926,225.274,508.305,201.435,491.531,183.394 M463.535,195.444c-2.209,0.702-4.442,1.358-6.703,1.97
	c-12.348,3.334-25.442,5.296-39.015,5.664v48.496h56.632C473.93,230.78,469.979,211.54,463.535,195.444 M408.456,203.077
	c-13.57-0.368-26.665-2.33-39.014-5.664c-2.259-0.611-4.494-1.268-6.703-1.97c-6.443,16.097-10.396,35.337-10.914,56.131h56.631
	V203.077z M353.916,192.349c-6.687-2.574-13.095-5.573-19.174-8.955c-16.773,18.041-27.396,41.88-28.527,68.18h36.246
	C342.982,229.749,347.129,209.452,353.916,192.349 M341.696,176.563c5.086,2.694,10.419,5.109,15.968,7.221
	c1.491-3.101,3.075-6.068,4.745-8.893c4.545-7.688,9.739-14.332,15.443-19.706C364.365,159.892,352.11,167.222,341.696,176.563
	 M366.563,186.847c1.747,0.541,3.511,1.052,5.293,1.533c11.563,3.123,23.845,4.968,36.6,5.332v-44.166
	c-14.636,1.972-27.952,13.103-38.003,30.098C369.094,181.943,367.796,184.347,366.563,186.847 M417.818,193.712
	c12.755-0.364,25.036-2.209,36.602-5.332c1.78-0.481,3.547-0.992,5.293-1.533c-1.234-2.5-2.531-4.904-3.892-7.203
	c-10.051-16.995-23.367-28.126-38.003-30.098V193.712z M468.61,183.783c5.549-2.111,10.883-4.526,15.969-7.221
	c-10.414-9.341-22.67-16.671-36.155-21.378c5.702,5.374,10.897,12.019,15.442,19.706
	C465.535,177.715,467.119,180.683,468.61,183.783 M451.11,271.32l94.721,50.994c0.562,0.303,0.896,0.836,0.92,1.473
	c0.025,0.637-0.264,1.195-0.799,1.543l-24.981,16.176c-0.429,0.277-0.689,0.68-0.773,1.184c-0.084,0.502,0.033,0.967,0.349,1.367
	l19.59,25.074c0.594,0.762,0.459,1.865-0.301,2.461l-15.425,12.051c-0.76,0.594-1.864,0.459-2.459-0.303l-19.592-25.074
	c-0.313-0.402-0.736-0.631-1.244-0.67s-0.961,0.117-1.334,0.469l-21.737,20.324c-0.468,0.436-1.078,0.582-1.691,0.4
	c-0.609-0.178-1.047-0.631-1.205-1.248L448.58,273.295c-0.176-0.688,0.06-1.375,0.619-1.813
	C449.758,271.043,450.483,270.984,451.11,271.32"/>
</svg>
