<?xml version="1.0" encoding="UTF-8"?>
<svg id="_レイヤー_2" data-name="レイヤー 2" xmlns="http://www.w3.org/2000/svg" viewBox="0 0 298.96 66.39">
  <defs>
    <style>
      .cls-1 {
        fill: #002662;
      }
    </style>
  </defs>
  <g id="_レイヤー_1-2" data-name="レイヤー 1">
    <g>
      <path class="cls-1" d="M3.34,14.38c0-4.6,0-9.92-2.23-13.35,8.97,0,18.12-1.02,27.1-1.02,7.94,0,15.18,3.42,15.18,12.33,0,8.83-7.02,13.13-14.27,16.18v.21c9.47,2.16,17.61,5.9,17.62,16.94,0,16.09-12.23,20.74-26.08,20.74-6.9,0-13.75-.41-20.66-.41,3.34-7.2,3.34-17.73,3.34-25.55V14.38ZM12.53,28.23h2.75c8.94,0,18.11-2.87,18.11-13.66,0-9.2-6.21-10.5-14.56-10.5-1.94,0-4.05.19-6.3.39v23.77ZM12.53,47.95c0,11.85,0,14.35,6.8,14.35,10.41,0,16.82-4.03,16.82-14.96,0-13.95-10.17-15.44-21.89-15.44h-1.73v16.05Z"/>
      <path class="cls-1" d="M98.75,56.51c2.97,4,4.4,5.62,8.57,9.47h-8.33c-4.4,0-6.35-2.35-8.57-5.58l-12.45-17.72c-4.24-6.12-4.96-7.87-10.87-8.38v18.35c0,4.59,0,9.88,2.22,13.33h-14.15c2.97-4.65,2.76-9.55,2.76-13.94V14.38c0-4.61,0-9.92-2.25-13.35C64.22,1.02,72.39,0,80.31,0,90.72,0,96.11,5.69,96.11,13.65c0,9.36-7.74,15.49-15.06,18.45l17.71,24.41ZM67.09,30.36c1.52.2,3.06.31,4.58.31,9.88,0,15.29-5.31,15.29-14.97,0-10.21-5.82-11.44-14.87-11.63h-4.8c-.1,1.51-.19,3.26-.19,4.88v21.41Z"/>
      <path class="cls-1" d="M160.22,65.98l-11.1-28.52h-22.94c-4.36,8.87-8.94,18.84-8.95,24.67,0,1.3.1,2.53.32,3.84h-12.73l2.22-2.86c5.82-7.31,26.82-51,26.81-59.37l.1-2.73h12.01c6.52,20.25,13.04,42.37,23.21,61.21l2.04,3.75h-10.98ZM140.24,11.61c-.21-.72-.81-2.46-1.74-2.46s-1.52,1.94-1.71,2.46l-8.87,21.78h19.47l-7.15-21.78Z"/>
      <path class="cls-1" d="M176,65.98c3.59-8.34,3.59-20.75,3.59-29.74V14.58c0-5.01-.22-10.51-3.27-13.56h10.27c1.95,0,2.86,0,4.08,1.61,2.15,2.86,8.66,13.78,11.82,18.23l20.27,28.61c.73,1.04,1.54,2.47,2.15,2.47.72,0,.72-1.02.72-1.94V14.05c0-6.95-1.02-10.4-2.43-13.03h10.57c-2.45,4.67-3.07,9.98-3.07,15.18v40.73c0,3.37.09,6.41.22,9.45h-7.22s-37.28-53.04-37.28-53.04c-.43-.62-.72-1.11-1.13-1.11s-.62.61-.62,1.53v26.17c0,8.12-.21,18.44,3.05,26.06h-11.71Z"/>
      <path class="cls-1" d="M297.84,1.02c-1.73,2.11-3.47,4.47-5.09,6.71l-36.57,49.71c-1.11,1.54-1.83,1.93-1.83,3.17,0,1.32,1.44,1.34,3.05,1.34h20.97c8.67-.01,14.38-.43,20.6-6.74l-1.52,10.78h-58.97c9.45-12.32,19.12-24.33,28.11-37.05l13.22-18.86c1.54-2.14,2.87-3.77,2.87-4.48,0-.52-1.43-.52-3.16-.52h-19.07c-5.88,0-12.2,1.34-16.6,5.42l1.22-9.47h52.78Z"/>
    </g>
  </g>
</svg>